<mxfile host="app.diagrams.net" modified="2023-09-18T16:35:09.601Z" agent="Mozilla/5.0 (Windows NT 10.0; Win64; x64) AppleWebKit/537.36 (KHTML, like Gecko) Chrome/117.0.0.0 Safari/537.36 Edg/117.0.2045.31" version="21.7.5" etag="BJiddi8XoSns8bAG6bJV" type="github">
  <diagram name="Trang-1" id="aIbzALBIz3ORE9qF0zUO">
    <mxGraphModel>
      <root>
        <mxCell id="0" />
        <mxCell id="1" parent="0" />
      </root>
    </mxGraphModel>
  </diagram>
</mxfile>
